<?xml version="1.0" encoding="UTF-8" standalone="no"?>

<svg
   xmlns:dc="http://purl.org/dc/elements/1.1/"
   xmlns:cc="http://creativecommons.org/ns#"
   xmlns:rdf="http://www.w3.org/1999/02/22-rdf-syntax-ns#"
   xmlns:svg="http://www.w3.org/2000/svg"
   xmlns="http://www.w3.org/2000/svg"
   xmlns:sodipodi="http://sodipodi.sourceforge.net/DTD/sodipodi-0.dtd"
   xmlns:inkscape="http://www.inkscape.org/namespaces/inkscape"
   width="200"
   height="776.76001"
   viewBox="0 0 52.916665 205.51776"
   version="1.1"
   id="svg8"
   sodipodi:docname="logo.svg">
  <g
     inkscape:label="Layer 1"
     inkscape:groupmode="layer"
     id="layer1"
     transform="translate(0,-91.482233)">
    <path
       style="fill:#000000;stroke-width:2.60326982"
       d="M 15.70349,295.04705 C 10.308692,291.17305 4.924363,279.74406 1.9249164,265.80013 -3.2527338,241.73009 2.6267847,173.32177 12.267481,145.46418 c 5.108604,-14.76173 5.345447,-25.10774 0.835826,-36.51106 -1.059918,-2.68017 -0.615228,-4.55573 1.080157,-4.55573 1.584985,0 2.881791,2.78524 2.881791,6.18943 0,3.40417 1.744308,7.63706 3.876243,9.40641 2.131932,1.76934 3.317055,4.12177 2.633608,5.22761 -0.683448,1.10584 1.565444,2.54742 4.997536,3.20351 4.244035,0.81129 5.843052,0.15801 4.998726,-2.04227 -0.682794,-1.77933 0.0099,-4.00852 1.5393,-4.95374 1.755827,-1.08516 2.794709,1.45642 2.818631,6.89567 0.02083,4.73784 1.887985,13.88588 4.149216,20.32898 2.261231,6.44309 4.559681,13.97156 5.10767,16.72993 0.547985,2.75836 2.488122,5.96197 4.31141,7.11913 3.001687,1.90502 1.005245,3.23762 -3.770136,2.51652 -1.033269,-0.15605 -0.803575,2.54401 0.510429,6.00011 1.314005,3.45609 2.423092,10.18099 2.46464,14.9442 0.417694,47.88717 -0.197771,60.68787 -3.089715,64.26211 -2.556884,3.16012 -2.548538,3.57198 0.04087,2.01632 1.789737,-1.07525 3.254077,-0.71439 3.254077,0.80191 0,1.5163 -0.943842,2.75691 -2.097425,2.75691 -1.153582,0 -2.032186,2.63581 -1.952454,5.85736 0.07974,3.22155 -2.451329,10.25037 -5.624588,15.61962 -4.816139,8.14905 -7.182184,9.75568 -14.317984,9.72239 -4.701632,-0.0219 -9.746951,-0.90053 -11.211821,-1.95245 z m 11.508149,-29.24692 c 0.122615,-11.45438 -0.645832,-20.82607 -1.707643,-20.82597 -1.061811,10e-5 -1.77298,6.73606 -1.580377,14.96879 0.523587,22.38051 0.847431,26.68333 2.008271,26.68333 0.581253,0 1.15714,-9.37177 1.279749,-20.82615 z m 12.40387,-0.65082 c -0.72218,-1.78974 -1.313053,-0.32541 -1.313053,3.25409 0,3.5795 0.590873,5.04383 1.313053,3.25409 0.722178,-1.78975 0.722178,-4.71843 0,-6.50818 z m 2.60327,-15.61962 c -0.722181,-1.78974 -1.313053,-0.3254 -1.313053,3.25409 0,3.5795 0.590872,5.04383 1.313053,3.25409 0.722178,-1.78975 0.722178,-4.71842 0,-6.50818 z m -6.930636,-3.25409 c 0,-2.14769 -0.460401,-3.9049 -1.023113,-3.9049 -0.562713,0 -1.697418,1.75721 -2.521567,3.9049 -0.824151,2.1477 -0.363749,3.90491 1.023114,3.90491 1.38686,0 2.521566,-1.75721 2.521566,-3.90491 z m -4.794067,-8.46062 c 0.226849,-2.50565 0.240672,-6.6058 0.0307,-9.11145 -0.20998,-2.50564 1.068749,-4.57365 2.841617,-4.59558 2.318548,-0.0286 2.394469,-0.57675 0.270459,-1.95245 -4.776035,-3.09339 -5.3694,-12.0457 -1.046725,-15.79228 3.51801,-3.04914 3.406706,-3.27709 -0.924278,-1.89286 -3.9063,1.2485 -4.322617,0.84921 -2.014393,-1.93203 2.15191,-2.59289 2.112216,-4.30311 -0.152446,-6.56778 -2.347125,-2.34712 -2.296795,-3.06198 0.215585,-3.06198 1.802656,0 2.553551,-1.17147 1.668651,-2.60326 -0.884902,-1.4318 -0.299165,-2.60328 1.301634,-2.60328 1.600801,0 2.174725,-1.19058 1.275392,-2.64573 -0.899336,-1.45515 -2.842554,-1.89952 -4.318267,-0.98748 -1.789397,1.10591 -1.878606,0.0362 -0.267822,-3.21162 2.885243,-5.81743 1.559439,-24.5837 -1.987371,-28.1305 -2.723782,-2.72379 -2.877617,-0.87538 -2.910851,34.97533 -0.04214,45.46315 0.463419,54.66867 3.00238,54.66867 1.431799,0 2.788883,-2.05008 3.015742,-4.55572 z m 13.357495,-3.25668 c -1.873175,-7.16303 -3.356889,-6.51866 -3.356889,1.45786 0,3.664 1.061494,6.00577 2.358875,5.20396 1.297382,-0.80183 1.746488,-3.79965 0.998014,-6.66182 z m -0.124783,-24.07766 c 0.510925,-5.36924 -0.0072,-9.76225 -1.151574,-9.76225 -1.144291,0 -1.944638,6.15022 -1.778549,13.66716 0.313772,14.20065 1.336993,12.83702 2.930123,-3.90491 z m -3.245989,-41.1064 C 38.576466,154.9862 36.003418,142.58688 34.76291,141.8202 c -1.240507,-0.76668 -1.673884,1.81328 -0.963063,5.73322 2.498677,13.77938 6.173208,40.70415 6.515471,47.74149 0.09864,2.02838 0.955285,2.91204 1.903633,1.96369 0.948347,-0.94835 0.166192,-13.4963 -1.738152,-27.88436 z M 18.843585,145.5616 c -0.831032,-2.0767 -1.447895,-1.45985 -1.57281,1.57282 -0.113034,2.74428 0.502244,4.28183 1.36729,3.41678 0.865043,-0.86504 0.957529,-3.11035 0.205528,-4.9896 z m 3.15236,-30.01875 c -0.151717,-1.11871 -0.06342,-5.25555 0.1962,-9.193 0.259627,-3.93745 -0.787713,-7.158999 -2.327423,-7.158999 -1.539706,0 -2.799467,-1.757204 -2.799467,-3.9049 0,-5.785328 7.183301,-4.733262 10.542844,1.54411 1.603924,2.996948 2.208557,8.268569 1.343631,11.714709 -1.889313,7.52763 2.67689,8.48822 5.034779,1.05916 2.348565,-7.39966 8.677861,-6.71529 7.244407,0.78333 -0.898765,4.70159 -3.060729,6.11889 -10.052079,6.58973 -4.898874,0.32992 -9.031174,-0.31544 -9.182892,-1.43414 z"
       id="path60"
       inkscape:connector-curvature="0" />
  </g>
</svg>
